<?xml version="1.0" standalone="no"?>
<!-- Generator: Adobe Fireworks 10, Export SVG Extension by Aaron Beall (http://fireworks.abeall.com) . Version: 0.6.1  -->
<!DOCTYPE svg PUBLIC "-//W3C//DTD SVG 1.1//EN" "http://www.w3.org/Graphics/SVG/1.1/DTD/svg11.dtd">
<svg id="Untitled-%u30DA%u30FC%u30B8%201" viewBox="0 0 280 280" style="background-color:#ffffff" version="1.1"
	xmlns="http://www.w3.org/2000/svg" xmlns:xlink="http://www.w3.org/1999/xlink" xml:space="preserve"
	x="0px" y="0px" width="280px" height="280px"
>
	<path d="M 159.2 135.7355 C 161.1875 135.7355 162.8 134.1236 162.8 132.1355 C 162.8 130.1475 161.1875 128.5356 159.2 128.5356 L 140 128.5356 L 139.9988 103.2371 C 139.9988 103.2371 139.9789 102.6523 139.9883 102.425 C 140.3117 98.4078 141.7742 95.44 144.4578 93.3518 C 151.2101 88.0953 163.2722 90.0635 163.3871 90.0828 C 165.3476 90.4197 167.2086 89.1078 167.5472 87.1484 C 167.8859 85.1891 166.5722 83.3264 164.6129 82.9883 C 163.9941 82.8816 149.3445 80.4512 140.0609 87.6494 C 135.7402 91.0004 133.3015 95.777 132.8093 101.8695 C 132.7812 102.2662 132.7988 103.2986 132.8 103.3402 L 132.8 128.5356 L 116 128.5356 C 114.0119 128.5356 112.4 130.1475 112.4 132.1355 C 112.4 134.1236 114.0119 135.7355 116 135.7355 L 132.8 135.7355 L 132.8 194.5356 C 132.8 196.5236 134.4125 198.1355 136.4 198.1355 C 138.3875 198.1355 140 196.5236 140 194.5356 L 140 135.7355 L 159.2 135.7355 Z" fill="#333333"/>
</svg>