<?xml version="1.0" standalone="no"?>
<!-- Generator: Adobe Fireworks 10, Export SVG Extension by Aaron Beall (http://fireworks.abeall.com) . Version: 0.6.1  -->
<!DOCTYPE svg PUBLIC "-//W3C//DTD SVG 1.1//EN" "http://www.w3.org/Graphics/SVG/1.1/DTD/svg11.dtd">
<svg id="Untitled-%u30DA%u30FC%u30B8%201" viewBox="0 0 280 280" style="background-color:#ffffff" version="1.1"
	xmlns="http://www.w3.org/2000/svg" xmlns:xlink="http://www.w3.org/1999/xlink" xml:space="preserve"
	x="0px" y="0px" width="280px" height="280px"
>
	<path d="M 224 143.6 C 225.9881 143.6 227.6 141.9881 227.6 140 C 227.6 138.0119 225.9881 136.4 224 136.4 L 200.36 136.4 L 200.3598 115.4 C 200.3598 113.4119 198.7484 111.8 196.7598 111.8 C 194.7723 111.8 193.1598 113.4119 193.1598 115.4 L 193.16 136.4 L 170.648 136.4 C 168.66 136.4 167.048 138.0119 167.048 140 C 167.048 141.9881 168.66 143.6 170.648 143.6 L 193.16 143.6 L 193.1598 165.7162 C 193.1598 167.7043 194.7723 169.3162 196.7598 169.3162 C 198.7484 169.3162 200.3598 167.7043 200.3598 165.7162 L 200.36 143.6 L 224 143.6 ZM 105.9441 192.8 C 126.8023 192.8 142.3836 183.5111 152.2531 165.1912 C 152.334 165.0412 152.4043 164.8859 152.4629 164.7266 C 156.667 153.2955 157.1973 140.6703 157.2172 140.1389 C 157.2553 139.1604 156.8926 138.2094 156.2146 137.5039 C 155.5356 136.7984 154.5992 136.4 153.6201 136.4 L 111.6201 136.4 C 109.632 136.4 108.0201 138.0119 108.0201 140 C 108.0201 141.9881 109.632 143.6 111.6201 143.6 L 149.7301 143.6 C 149.2918 147.9043 148.2371 155.2514 145.7926 162.002 C 137.1547 177.8803 124.1176 185.6 105.9441 185.6 C 80.3902 185.6 59.6 165.1438 59.6 140 C 59.6 114.8562 80.3902 94.4 105.9441 94.4 C 119.6475 94.4 130.1006 101.1957 136.4563 106.8963 C 137.9369 108.224 140.2127 108.1004 141.5398 106.6197 C 142.8676 105.1396 142.7439 102.8639 141.2639 101.5361 C 130.8066 92.1576 118.5934 87.2 105.9441 87.2 C 76.4199 87.2 52.4 110.8859 52.4 140 C 52.4 169.1141 76.4199 192.8 105.9441 192.8 Z" fill="#333333"/>
</svg>