<?xml version="1.0" standalone="no"?>
<!-- Generator: Adobe Fireworks 10, Export SVG Extension by Aaron Beall (http://fireworks.abeall.com) . Version: 0.6.1  -->
<!DOCTYPE svg PUBLIC "-//W3C//DTD SVG 1.1//EN" "http://www.w3.org/Graphics/SVG/1.1/DTD/svg11.dtd">
<svg id="Untitled-%u30DA%u30FC%u30B8%201" viewBox="0 0 280 280" style="background-color:#ffffff" version="1.1"
	xmlns="http://www.w3.org/2000/svg" xmlns:xlink="http://www.w3.org/1999/xlink" xml:space="preserve"
	x="0px" y="0px" width="280px" height="280px"
>
	<path d="M 172.3 174.15 C 172.3 167.1911 177.9411 161.55 184.9 161.55 C 191.8589 161.55 197.5 167.1911 197.5 174.15 C 197.5 181.1089 191.8589 186.75 184.9 186.75 C 177.9411 186.75 172.3 181.1089 172.3 174.15 ZM 165.1 174.15 C 165.1 185.0854 173.9646 193.95 184.9 193.95 C 195.8354 193.95 204.7 185.0854 204.7 174.15 C 204.7 163.2146 195.8354 154.35 184.9 154.35 C 173.9646 154.35 165.1 163.2146 165.1 174.15 ZM 184.6 143.9701 C 186.5881 143.9701 188.2 142.3582 188.2 140.3701 L 188.2 91.326 C 188.2 89.3379 186.5881 87.726 184.6 87.726 C 182.6119 87.726 181 89.3379 181 91.326 L 181 140.3701 C 181 142.3582 182.6119 143.9701 184.6 143.9701 ZM 111.6637 135.7617 L 83.5 135.7617 L 83.5 93.75 L 111.6637 93.75 C 125.8967 93.75 137.476 103.176 137.476 114.7617 C 137.476 126.341 125.8967 135.7617 111.6637 135.7617 ZM 116.3676 193.35 C 134.2621 193.35 149.3799 179.8975 149.3799 163.974 C 149.3799 152.5422 141.381 142.6737 129.916 138.246 C 138.8059 133.1878 144.676 124.5506 144.676 114.7617 C 144.676 99.2062 129.867 86.55 111.6637 86.55 L 79.9 86.55 C 77.9119 86.55 76.3 88.1619 76.3 90.15 L 76.3 139.3617 L 76.3 189.75 C 76.3 191.7381 77.9119 193.35 79.9 193.35 L 116.3676 193.35 ZM 83.5 186.15 L 83.5 142.9617 L 111.6637 142.9617 L 116.3676 142.9617 C 130.6006 142.9617 142.1799 152.3877 142.1799 163.974 C 142.1799 175.7871 130.1184 186.15 116.3676 186.15 L 83.5 186.15 Z" fill="#333333"/>
</svg>