<?xml version="1.0" standalone="no"?>
<!-- Generator: Adobe Fireworks 10, Export SVG Extension by Aaron Beall (http://fireworks.abeall.com) . Version: 0.6.1  -->
<!DOCTYPE svg PUBLIC "-//W3C//DTD SVG 1.1//EN" "http://www.w3.org/Graphics/SVG/1.1/DTD/svg11.dtd">
<svg id="Untitled-%u30DA%u30FC%u30B8%201" viewBox="0 0 280 280" style="background-color:#ffffff" version="1.1"
	xmlns="http://www.w3.org/2000/svg" xmlns:xlink="http://www.w3.org/1999/xlink" xml:space="preserve"
	x="0px" y="0px" width="280px" height="280px"
>
	<g id="%u30EC%u30A4%u30E4%u30FC%201">
		<path d="M 172.052 209.6 C 192.7561 209.6 209.6 192.7561 209.6 172.052 L 209.6 107.948 C 209.6 87.2439 192.7561 70.4 172.052 70.4 L 107.948 70.4 C 87.2439 70.4 70.4 87.2439 70.4 107.948 L 70.4 172.052 C 70.4 192.7561 87.2439 209.6 107.948 209.6 L 172.052 209.6 ZM 107.948 77.6 L 172.052 77.6 C 188.7863 77.6 202.4 91.2143 202.4 107.948 L 202.4 172.052 C 202.4 188.7858 188.7863 202.4 172.052 202.4 L 107.948 202.4 C 91.2143 202.4 77.6 188.7858 77.6 172.052 L 77.6 107.948 C 77.6 91.2143 91.2143 77.6 107.948 77.6 ZM 172.4 100.4 C 172.4 104.3765 175.6235 107.6 179.6 107.6 C 183.5765 107.6 186.8 104.3765 186.8 100.4 C 186.8 96.4235 183.5765 93.2 179.6 93.2 C 175.6235 93.2 172.4 96.4235 172.4 100.4 ZM 140 178.4838 C 161.2203 178.4838 178.4844 161.2203 178.4844 140 C 178.4844 118.7797 161.2203 101.5162 140 101.5162 C 118.7797 101.5162 101.5156 118.7797 101.5156 140 C 101.5156 161.2203 118.7797 178.4838 140 178.4838 ZM 140 108.7162 C 157.25 108.7162 171.2844 122.75 171.2844 140 C 171.2844 157.25 157.25 171.2838 140 171.2838 C 122.75 171.2838 108.7156 157.25 108.7156 140 C 108.7156 122.75 122.75 108.7162 140 108.7162 Z" fill="#333333"/>
	</g>
</svg>