<?xml version="1.0" standalone="no"?>
<!-- Generator: Adobe Fireworks 10, Export SVG Extension by Aaron Beall (http://fireworks.abeall.com) . Version: 0.6.1  -->
<!DOCTYPE svg PUBLIC "-//W3C//DTD SVG 1.1//EN" "http://www.w3.org/Graphics/SVG/1.1/DTD/svg11.dtd">
<svg id="Untitled-%u30DA%u30FC%u30B8%201" viewBox="0 0 280 280" style="background-color:#ffffff" version="1.1"
	xmlns="http://www.w3.org/2000/svg" xmlns:xlink="http://www.w3.org/1999/xlink" xml:space="preserve"
	x="0px" y="0px" width="280px" height="280px"
>
	<path d="M 133.5441 212 C 139.1738 212 159.7285 202.9965 177.8797 189.425 C 195.0875 176.5596 215.6 155.5777 215.6 128.6838 C 215.6 99.3775 185.0246 68 139.5078 68 C 90.1988 68 64.4 98.5279 64.4 128.6838 C 64.4 153.6096 77.5437 168.3775 88.5705 176.3773 C 102.5996 186.5557 119.1682 190.2617 130.1639 190.3502 C 131.0299 192.3652 130.2365 199.1838 129.9277 201.8387 C 129.3588 206.7318 129.0992 208.9648 130.6367 210.6916 C 131.3768 211.5231 132.4367 212 133.5441 212 ZM 139.5078 75.2 C 180.7174 75.2 208.4 102.8545 208.4 128.6838 C 208.4 169.785 152.3645 198.6957 136.9332 203.9434 L 137.0797 202.6707 C 137.982 194.9082 138.4314 188.699 135.3934 185.2865 C 134.15 183.8902 132.4812 183.152 130.5676 183.152 C 111.3283 183.152 71.6 169.8383 71.6 128.6838 C 71.6 102.1057 94.9256 75.2 139.5078 75.2 ZM 153.4039 153.9318 C 155.392 153.9318 157.0039 152.3199 157.0039 150.3318 C 157.0039 148.3438 155.392 146.7318 153.4039 146.7318 L 136.148 146.7318 L 136.148 109.0039 C 136.148 107.0158 134.5361 105.4039 132.548 105.4039 C 130.56 105.4039 128.948 107.0158 128.948 109.0039 L 128.948 150.3318 C 128.948 152.3199 130.56 153.9318 132.548 153.9318 L 153.4039 153.9318 Z" fill="#333333"/>
</svg>