<?xml version="1.0" standalone="no"?>
<!-- Generator: Adobe Fireworks 10, Export SVG Extension by Aaron Beall (http://fireworks.abeall.com) . Version: 0.6.1  -->
<!DOCTYPE svg PUBLIC "-//W3C//DTD SVG 1.1//EN" "http://www.w3.org/Graphics/SVG/1.1/DTD/svg11.dtd">
<svg id="Untitled-%u30DA%u30FC%u30B8%201" viewBox="0 0 280 280" style="background-color:#ffffff" version="1.1"
	xmlns="http://www.w3.org/2000/svg" xmlns:xlink="http://www.w3.org/1999/xlink" xml:space="preserve"
	x="0px" y="0px" width="280px" height="280px"
>
	<g id="%u30EC%u30A4%u30E4%u30FC%201">
		<path d="M 132.9916 225.2 C 138.8246 225.2 162.8984 215.1693 184.7311 198.7795 C 204.8352 183.6881 228.8 159.0143 228.8 127.1721 C 228.8 110.1611 219.6043 91.877 204.2023 78.2627 C 187.0854 63.1326 163.8711 54.8 138.8357 54.8 C 113.0141 54.8 90.8135 62.3363 74.6334 76.5939 C 59.5221 89.9105 51.2 107.8725 51.2 127.1721 C 51.2 177.3236 97.8799 200.7002 129.4566 200.7201 C 130.792 202.5271 129.7654 210.9963 129.374 214.226 C 128.7231 219.5979 128.426 222.0494 130.0344 223.8647 C 130.7867 224.7131 131.8643 225.2 132.9916 225.2 ZM 138.8357 62 C 162.1133 62 183.6342 69.6916 199.434 83.6574 C 213.3137 95.9258 221.6 112.1932 221.6 127.1721 C 221.6 156.0219 199.226 178.8852 180.4566 192.9857 C 162.6189 206.3855 144.0348 214.802 136.2676 217.2529 L 136.5213 215.0926 C 137.5648 206.4887 138.0969 199.608 134.76 195.8422 C 133.4141 194.3229 131.5947 193.5201 129.5 193.5201 C 107.2262 193.5201 58.4 176.8133 58.4 127.1721 C 58.4 94.7855 86.0293 62 138.8357 62 ZM 192.524 148.2682 C 194.5121 148.2682 196.124 146.6563 196.124 144.6682 C 196.124 142.6801 194.5121 141.0682 192.524 141.0682 L 178.6156 141.0682 L 178.6159 130.7721 L 191.3481 130.7721 C 193.3361 130.7721 194.948 129.1602 194.948 127.1721 C 194.948 125.184 193.3361 123.5721 191.3481 123.5721 L 178.6159 123.5721 L 178.6156 113.2883 L 192.524 113.2883 C 194.5121 113.2883 196.124 111.6764 196.124 109.6883 C 196.124 107.7002 194.5121 106.0883 192.524 106.0883 L 175.0156 106.0883 C 173.0281 106.0883 171.4156 107.7002 171.4156 109.6883 L 171.4156 127.1721 L 171.4156 144.6682 C 171.4156 146.6563 173.0281 148.2682 175.0156 148.2682 L 192.524 148.2682 ZM 158.6727 149.4318 C 159.033 149.4318 159.398 149.3779 159.7549 149.2648 C 161.2531 148.7926 162.2721 147.4027 162.2721 145.8318 L 162.2721 109.6883 C 162.2721 107.7002 160.6602 106.0883 158.6721 106.0883 C 156.684 106.0883 155.0721 107.7002 155.0721 109.6883 L 155.0721 134.4184 L 137.116 108.7865 C 136.2148 107.4992 134.5836 106.9449 133.0848 107.4189 C 131.5871 107.8912 130.5676 109.2811 130.5676 110.852 L 130.5676 145.8318 C 130.5676 147.8199 132.1801 149.4318 134.1676 149.4318 C 136.1557 149.4318 137.7676 147.8199 137.7676 145.8318 L 137.7676 122.2654 L 155.7236 147.8973 C 156.4098 148.8775 157.5201 149.4324 158.6727 149.4318 ZM 118.9883 149.4318 C 120.9758 149.4318 122.5883 147.8199 122.5883 145.8318 L 122.5883 110.852 C 122.5883 108.8639 120.9758 107.252 118.9883 107.252 C 116.9996 107.252 115.3883 108.8639 115.3883 110.852 L 115.3883 145.8318 C 115.3883 147.8199 116.9996 149.4318 118.9883 149.4318 ZM 106.148 149.4318 C 108.1361 149.4318 109.748 147.8199 109.748 145.8318 C 109.748 143.8438 108.1361 142.2318 106.148 142.2318 L 92.252 142.2318 L 92.252 110.852 C 92.252 108.8639 90.64 107.252 88.652 107.252 C 86.6639 107.252 85.0519 108.8639 85.0519 110.852 L 85.0519 145.8318 C 85.0519 147.8199 86.6639 149.4318 88.652 149.4318 L 106.148 149.4318 Z" fill="#333333"/>
	</g>
</svg>