<?xml version="1.0" standalone="no"?>
<!-- Generator: Adobe Fireworks 10, Export SVG Extension by Aaron Beall (http://fireworks.abeall.com) . Version: 0.6.1  -->
<!DOCTYPE svg PUBLIC "-//W3C//DTD SVG 1.1//EN" "http://www.w3.org/Graphics/SVG/1.1/DTD/svg11.dtd">
<svg id="Untitled-%u30DA%u30FC%u30B8%201" viewBox="0 0 280 280" style="background-color:#ffffff" version="1.1"
	xmlns="http://www.w3.org/2000/svg" xmlns:xlink="http://www.w3.org/1999/xlink" xml:space="preserve"
	x="0px" y="0px" width="280px" height="280px"
>
	<g id="%u30EC%u30A4%u30E4%u30FC%201">
		<path d="M 146 213.2 C 146.3879 213.2 146.7769 213.1379 147.1531 213.0102 C 147.8562 212.7723 164.552 207.0441 181.4738 194.225 C 204.1918 177.0148 216.2 155.2273 216.2 131.2162 C 216.2 106.3109 196.7797 66.8 144.6676 66.8 C 113.6076 66.8 94.2377 81.0904 83.4582 93.0787 C 68.9644 109.1979 63.8 127.5383 63.8 139.3279 C 63.8 155.7277 71.0352 170.9879 84.173 182.3 C 99.1824 195.2223 120.2152 201.1426 142.4 198.8188 L 142.4 209.6 C 142.4 210.7602 142.959 211.8488 143.9012 212.525 C 144.5211 212.9691 145.257 213.2 146 213.2 ZM 146 191.1324 C 145.8219 191.1324 145.6426 191.1441 145.4656 191.1723 C 123.851 194.4219 103.2201 189.1977 88.8711 176.8438 C 77.3469 166.9215 71 153.5984 71 139.3279 C 71 129.3518 75.6646 112.5143 88.8119 97.8934 C 98.6129 86.9932 116.2596 74 144.6676 74 C 191.5344 74 209 109.0947 209 131.2162 C 209 175.2477 164.4594 197.9574 149.5988 204.3066 L 149.5988 196.5008 C 149.6445 194.3234 149.6668 193.3297 148.5734 192.2141 C 147.8914 191.5168 146.9609 191.1324 146 191.1324 ZM 170.6727 161.1441 C 172.6602 161.1441 174.2727 159.5328 174.2727 157.5441 L 174.2727 130.6883 C 174.2727 119.4553 167.7617 111.9078 158.0727 111.9078 C 152.0891 111.9078 145.6777 114.834 141.5346 119.5174 C 138.7508 114.7402 134.0082 111.9078 128.0721 111.9078 C 123.2855 111.9078 118.226 113.7799 114.2721 116.9269 L 114.2721 114.3441 C 114.2721 112.3561 112.6602 110.7441 110.6721 110.7441 C 108.684 110.7441 107.0721 112.3561 107.0721 114.3441 L 107.0721 157.5441 C 107.0721 159.5328 108.684 161.1441 110.6721 161.1441 C 112.6602 161.1441 114.2721 159.5328 114.2721 157.5441 L 114.2721 130.6883 C 114.2721 124.2734 121.8213 119.1078 128.0721 119.1078 C 134.7078 119.1078 137.0721 125.0896 137.0721 130.6883 L 137.0721 157.5441 C 137.0721 159.5328 138.684 161.1441 140.6721 161.1441 C 142.6602 161.1441 144.2727 159.5328 144.2727 157.5441 L 144.2727 130.6883 C 144.2727 124.2734 151.8219 119.1078 158.0727 119.1078 C 164.7078 119.1078 167.0727 125.0896 167.0727 130.6883 L 167.0727 157.5441 C 167.0727 159.5328 168.684 161.1441 170.6727 161.1441 Z" fill="#333333"/>
	</g>
</svg>