<?xml version="1.0" standalone="no"?>
<!-- Generator: Adobe Fireworks 10, Export SVG Extension by Aaron Beall (http://fireworks.abeall.com) . Version: 0.6.1  -->
<!DOCTYPE svg PUBLIC "-//W3C//DTD SVG 1.1//EN" "http://www.w3.org/Graphics/SVG/1.1/DTD/svg11.dtd">
<svg id="Untitled-%u30DA%u30FC%u30B8%201" viewBox="0 0 280 280" style="background-color:#ffffff" version="1.1"
	xmlns="http://www.w3.org/2000/svg" xmlns:xlink="http://www.w3.org/1999/xlink" xml:space="preserve"
	x="0px" y="0px" width="280px" height="280px"
>
	<path d="M 140 200.6 C 177.5721 200.6 208.7943 172.1873 209.6 137.1799 L 209.6 93.1643 C 209.6 85.3174 203.6521 79.4 195.7643 79.4 L 84.2363 79.4 C 76.3484 79.4 70.4 85.3174 70.4 93.1643 L 70.4012 137.2631 C 71.2062 172.1873 102.4279 200.6 140 200.6 ZM 84.2363 86.6 L 195.7643 86.6 C 199.6092 86.6 202.4 89.3609 202.4 93.1643 L 202.4012 137.0967 C 201.6857 168.1426 173.6926 193.4 140 193.4 C 106.3074 193.4 78.3148 168.1426 77.6 137.1799 L 77.6 93.1643 C 77.6 89.3609 80.3908 86.6 84.2363 86.6 ZM 140 157.7117 C 140.917 157.7117 141.834 157.3637 142.5354 156.6676 L 174.3951 125.0598 C 175.8066 123.6594 175.816 121.3801 174.4156 119.9686 C 173.0141 118.5564 170.7354 118.5482 169.3244 119.948 L 140 149.0404 L 110.6756 119.948 C 109.2641 118.5482 106.9842 118.5564 105.5844 119.9686 C 104.184 121.3801 104.1934 123.6594 105.6049 125.0598 L 137.4646 156.6676 C 138.166 157.3637 139.083 157.7117 140 157.7117 Z" fill="#333333"/>
</svg>