<?xml version="1.0" standalone="no"?>
<!-- Generator: Adobe Fireworks 10, Export SVG Extension by Aaron Beall (http://fireworks.abeall.com) . Version: 0.6.1  -->
<!DOCTYPE svg PUBLIC "-//W3C//DTD SVG 1.1//EN" "http://www.w3.org/Graphics/SVG/1.1/DTD/svg11.dtd">
<svg id="Untitled-%u30DA%u30FC%u30B8%201" viewBox="0 0 280 280" style="background-color:#ffffff" version="1.1"
	xmlns="http://www.w3.org/2000/svg" xmlns:xlink="http://www.w3.org/1999/xlink" xml:space="preserve"
	x="0px" y="0px" width="280px" height="280px"
>
	<g id="%u30EC%u30A4%u30E4%u30FC%201">
		<path d="M 115.2951 197.6172 C 115.1609 197.6172 115.0291 197.6101 114.899 197.5955 C 99.4695 197.5404 84.4631 193.1107 71.4722 184.7746 C 70.0601 183.8681 69.4613 182.1068 70.0285 180.5277 C 70.5957 178.948 72.1795 177.9677 73.8441 178.1705 C 75.8533 178.4107 77.9 178.5343 79.9273 178.5385 C 79.9437 178.5385 79.9607 178.5385 79.9777 178.5385 C 88.489 178.5385 96.8972 176.381 104.3474 172.3609 C 95.2719 169.2554 87.9465 162.025 84.8984 152.548 C 84.5088 151.3375 84.7877 150.0109 85.6308 149.0588 C 85.9297 148.7218 86.283 148.4494 86.6709 148.2484 C 79.5898 142.515 75.1455 133.7623 75.1431 124.1957 L 75.1431 123.8488 C 75.1431 122.5726 75.8193 121.3914 76.9197 120.7451 C 77.7922 120.233 78.8287 120.1164 79.775 120.4 C 74.1939 111.0209 73.7633 98.9875 79.5717 88.9879 C 80.1658 87.9654 81.2246 87.2998 82.4035 87.2072 C 83.5842 87.1175 84.732 87.6074 85.4785 88.5261 C 97.7551 103.6299 115.5289 113.2668 134.7693 115.3931 C 134.1148 106.1998 137.6117 97.0281 144.4314 90.615 C 150.4525 84.9519 158.3187 81.973 166.5816 82.2261 C 174.149 82.4582 181.2189 85.3773 186.7051 90.4925 C 191.7617 89.3013 196.5851 87.3549 201.0664 84.6965 C 202.3531 83.9324 203.9797 84.0449 205.1486 84.9783 C 206.3187 85.9117 206.7887 87.472 206.3299 88.8965 C 205.4849 91.5174 204.3025 93.9924 202.8265 96.2664 C 203.6 95.9676 204.3664 95.6506 205.1258 95.3136 C 206.59 94.6656 208.308 95.0629 209.3392 96.2881 C 210.3705 97.5144 210.4672 99.2746 209.5765 100.6064 C 206.0193 105.9261 201.6676 110.5914 196.6226 114.4967 C 196.6326 115.0996 196.6326 115.6943 196.6326 116.2791 C 196.6326 156.2611 166.2084 197.6172 115.2951 197.6172 ZM 115.2951 190.3961 C 115.4246 190.3961 115.5529 190.4031 115.6789 190.4166 C 161.8555 190.2103 189.4326 152.6218 189.4326 116.2791 C 189.4326 115.1283 189.4326 114.042 189.3611 112.992 C 189.2767 111.7533 189.8369 110.5586 190.843 109.8308 C 192.5791 108.5746 194.2279 107.2211 195.7847 105.7738 C 194.3064 106.0662 192.8158 106.3017 191.314 106.4793 C 189.6289 106.6744 188.0316 105.6724 187.4844 104.0658 C 186.9365 102.4586 187.5857 100.6873 189.0418 99.8154 C 190.8763 98.7174 192.5387 97.3873 193.9959 95.8691 C 191.4734 96.7386 188.8877 97.4359 186.251 97.9562 C 185.0334 98.1959 183.7806 97.7933 182.9316 96.8904 C 178.5863 92.2691 172.7012 89.6172 166.3613 89.4226 C 159.9998 89.2269 153.9845 91.5144 149.3638 95.8597 C 143.2244 101.6336 140.5947 110.3195 142.5002 118.5285 C 142.7556 119.6289 142.4797 120.7849 141.7549 121.6515 C 141.0306 122.5181 139.9367 122.9933 138.8129 122.9377 C 117.7847 121.8836 97.9959 112.6568 83.6797 97.4031 C 80.5847 107.2539 84.2293 118.3222 93.1431 124.2742 C 94.4785 125.166 95.0621 126.8342 94.5734 128.364 C 94.0842 129.8933 92.6176 130.9129 91.0367 130.8666 C 88.2986 130.7857 85.5746 130.3322 82.956 129.5312 C 85.025 138.4187 92.14 145.583 101.3756 147.4486 C 103.0103 147.7785 104.2045 149.1894 104.2607 150.8564 C 104.3164 152.524 103.2195 154.0111 101.6099 154.45 C 99.1795 155.1133 96.6617 155.473 94.1381 155.5269 C 98.3105 162.3039 105.7086 166.6662 113.9187 166.8203 C 115.441 166.849 116.7804 167.8316 117.2644 169.2748 C 117.7484 170.7179 117.2726 172.3093 116.0761 173.2504 C 107.9316 179.6512 98.1599 183.7662 87.95 185.1853 C 96.575 188.6172 105.8011 190.3961 115.1937 190.3961 C 115.2283 190.3961 115.274 190.3943 115.2951 190.3961 Z" fill="#333333"/>
	</g>
</svg>